<svg width="96" height="96" viewBox="0 0 96 96" fill="none" xmlns="http://www.w3.org/2000/svg">
<path d="M48 8C25.92 8 8 25.92 8 48C8 70.08 25.92 88 48 88C70.08 88 88 70.08 88 48C88 25.92 70.08 8 48 8ZM44 79.72C28.2 77.76 16 64.32 16 48C16 45.52 16.32 43.16 16.84 40.84L36 60V64C36 68.4 39.6 72 44 72V79.72ZM71.6 69.56C70.56 66.32 67.6 64 64 64H60V52C60 49.8 58.2 48 56 48H32V40H40C42.2 40 44 38.2 44 36V28H52C56.4 28 60 24.4 60 20V18.36C71.72 23.12 80 34.6 80 48C80 56.32 76.8 63.88 71.6 69.56Z" fill="#FECA06"/>
</svg>
