<svg width="96" height="96" viewBox="0 0 96 96" fill="none" xmlns="http://www.w3.org/2000/svg">
<path d="M52 34.28C48.84 34.28 46.28 36.84 46.28 40C46.28 43.16 48.84 45.72 52 45.72C55.16 45.72 57.72 43.16 57.72 40C57.72 36.84 55.16 34.28 52 34.28Z" fill="#FECA06"/>
<path d="M52 12C37 12 24.8 23.76 24.08 38.56L16.4 48.8C15.4 50.12 16.36 52 18 52H24V64C24 68.4 27.6 72 32 72H36V84H64V65.28C73.44 60.8 80 51.16 80 40C80 24.52 67.48 12 52 12ZM64 40C64 40.52 63.96 41.04 63.92 41.56L67.24 44.2C67.56 44.44 67.64 44.84 67.44 45.2L64.24 50.76C64.04 51.12 63.6 51.24 63.28 51.12L59.32 49.52C58.48 50.16 57.6 50.68 56.64 51.08L56 55.32C55.96 55.72 55.6 56 55.2 56H48.8C48.4 56 48.08 55.72 48 55.32L47.4 51.08C46.4 50.68 45.52 50.16 44.68 49.52L40.72 51.12C40.36 51.24 39.92 51.12 39.72 50.76L36.52 45.2C36.32 44.88 36.4 44.44 36.72 44.2L40.08 41.56C40.04 41.04 40 40.52 40 40C40 39.48 40.08 38.92 40.16 38.44L36.76 35.8C36.44 35.56 36.36 35.16 36.56 34.76L39.76 29.24C39.96 28.88 40.36 28.76 40.72 28.88L44.72 30.48C45.52 29.88 46.44 29.32 47.4 28.92L48 24.68C48.08 24.28 48.4 24 48.8 24H55.2C55.6 24 55.92 24.28 56 24.68L56.6 28.92C57.56 29.32 58.44 29.84 59.28 30.48L63.28 28.88C63.64 28.76 64.08 28.88 64.24 29.24L67.44 34.76C67.64 35.12 67.56 35.56 67.24 35.8L63.84 38.44C63.96 38.92 64 39.44 64 40Z" fill="#FECA06"/>
</svg>
