<svg width="96" height="96" viewBox="0 0 96 96" fill="none" xmlns="http://www.w3.org/2000/svg">
<path d="M20 44H4V88H20V44Z" fill="#FECA06"/>
<path d="M64 13C66.6 9.96 70.64 8 74.8 8C82.2 8 88 13.8 88 21.2C88 30.28 76.36 40.8 64 52C51.64 40.76 40 30.24 40 21.2C40 13.8 45.8 8 53.2 8C57.36 8 61.4 9.96 64 13Z" fill="#FECA06"/>
<path d="M80 68H52L43.64 65.08L44.96 61.32L52 64H63.28C65.88 64 68 61.88 68 59.28C68 57.32 66.76 55.56 64.92 54.84L35.88 44H28V80.08L56 88L88.04 76C88 71.6 84.44 68 80 68Z" fill="#FECA06"/>
</svg>
